<svg xmlns="http://www.w3.org/2000/svg" viewBox="0 0 306.56 71.58"><defs><style>.cls-1{fill:#2d3d66;}</style></defs><title>akropolis landscape mono</title><g id="Layer_2" data-name="Layer 2"><g id="Layer_1-2" data-name="Layer 1"><path class="cls-1" d="M114.72,24.31a.8.8,0,0,1,.81-.81h3a.83.83,0,0,1,.82.81V46.45a.83.83,0,0,1-.82.81h-3a.8.8,0,0,1-.81-.81Z"/><path class="cls-1" d="M130.58,23.84a.8.8,0,0,1,.64-.34h3.4a.72.72,0,0,1,.54,1.22L127,33.91a1.24,1.24,0,0,0,0,1.61l8.83,10.56a.74.74,0,0,1-.61,1.18h-3.7a.77.77,0,0,1-.62-.23l-9.12-11.18a1.71,1.71,0,0,1,.06-2.23Z"/><path class="cls-1" d="M178.24,23.16a12.22,12.22,0,1,1-12.19,12.26A12.2,12.2,0,0,1,178.24,23.16Zm0,20a7.81,7.81,0,1,0-7.78-7.77A7.83,7.83,0,0,0,178.24,43.19Z"/><path class="cls-1" d="M232.28,23.16a12.22,12.22,0,1,1-12.19,12.26A12.2,12.2,0,0,1,232.28,23.16Zm0,20a7.81,7.81,0,1,0-7.77-7.77A7.83,7.83,0,0,0,232.28,43.19Z"/><path class="cls-1" d="M252.35,24.14a.64.64,0,0,1,.64-.64h3.12a.67.67,0,0,1,.65.64v19h8.66a.65.65,0,0,1,.64.65v2.78a.64.64,0,0,1-.64.64H253a.64.64,0,0,1-.64-.64Z"/><path class="cls-1" d="M275.79,24.14a.67.67,0,0,1,.65-.64h3.16a.66.66,0,0,1,.64.64V46.62a.66.66,0,0,1-.64.64h-3.16a.67.67,0,0,1-.65-.64Z"/><path class="cls-1" d="M291.11,43.94l1.22-2.11a.8.8,0,0,1,1.16-.24c.17.11,2.92,2.11,5.12,2.11a2.83,2.83,0,0,0,3.09-2.61c0-1.74-1.46-2.92-4.31-4.08-3.19-1.29-6.38-3.33-6.38-7.33,0-3,2.24-6.52,7.64-6.52a12,12,0,0,1,6.79,2.27.84.84,0,0,1,.2,1.12l-1.29,1.94a.89.89,0,0,1-1.19.41c-.27-.17-2.85-1.87-4.72-1.87s-3,1.29-3,2.38c0,1.59,1.26,2.68,4,3.8,3.29,1.32,7.1,3.29,7.1,7.67,0,3.5-3,6.72-7.81,6.72A11,11,0,0,1,291.28,45C291,44.65,290.8,44.48,291.11,43.94Z"/><path class="cls-1" d="M108.24,46.38,97.78,23.53a.58.58,0,0,0-.58-.37h-.34a.61.61,0,0,0-.57.37L85.73,46.38a.6.6,0,0,0,.57.88h3a1,1,0,0,0,1-.68l1.67-3.66,1.66-3.77,3.33-7.47H97l3.18,7a.63.63,0,0,1-.19.78l-3.73,2.83a.35.35,0,0,0,.21.63h5.17a.64.64,0,0,1,.59.38l1.49,3.28a1,1,0,0,0,1,.68h3A.6.6,0,0,0,108.24,46.38Z"/><path class="cls-1" d="M155.88,39.91h-3.57a.34.34,0,0,0-.3.49L155.33,47a.6.6,0,0,0,.55.3h3.56a.64.64,0,0,0,.58-1l-3-5.7A1.25,1.25,0,0,0,155.88,39.91Z"/><path class="cls-1" d="M155.37,37.66a6.87,6.87,0,0,0,5-6.86,7.35,7.35,0,0,0-7.4-7.3h-9.71a.64.64,0,0,0-.64.64V46.62a.64.64,0,0,0,.64.64h3.13a.66.66,0,0,0,.64-.64V38h3.77A38,38,0,0,0,155.37,37.66Zm-8.29-10.09h5.54a3.38,3.38,0,0,1,3.36,3.3,3.45,3.45,0,0,1-3.36,3.46h-5.54Z"/><path class="cls-1" d="M210,37.66a6.87,6.87,0,0,0,5-6.86,7.36,7.36,0,0,0-7.4-7.3H197.9a.64.64,0,0,0-.64.64V46.62a.64.64,0,0,0,.64.64H201a.67.67,0,0,0,.65-.64V38h3.77A38,38,0,0,0,210,37.66ZM201.7,27.57h5.54a3.38,3.38,0,0,1,3.36,3.3,3.45,3.45,0,0,1-3.36,3.46H201.7Z"/><path class="cls-1" d="M32.34,71.58a10.1,10.1,0,0,1-5-1.34L5,57.37a10.09,10.09,0,0,1-5-8.71V22.92a10.09,10.09,0,0,1,5-8.71L27.32,1.34a10.08,10.08,0,0,1,10,0L59.66,14.21a10.09,10.09,0,0,1,5,8.71V48.66a10.09,10.09,0,0,1-5,8.71L37.37,70.24A10.11,10.11,0,0,1,32.34,71.58Zm0-68.09a6.54,6.54,0,0,0-3.28.88L6.77,17.24a6.57,6.57,0,0,0-3.28,5.68V48.66a6.6,6.6,0,0,0,3.28,5.69L29.06,67.21a6.59,6.59,0,0,0,6.57,0L57.92,54.35a6.6,6.6,0,0,0,3.28-5.69V22.92a6.57,6.57,0,0,0-3.28-5.68L35.63,4.37A6.52,6.52,0,0,0,32.34,3.49Z"/><path class="cls-1" d="M32.34,59.9a5.47,5.47,0,0,1-2.71-.72L13.45,49.83a5.41,5.41,0,0,1-2.72-4.69V26.44a5.43,5.43,0,0,1,2.71-4.69L29.63,12.4a5.43,5.43,0,0,1,5.43,0l16.18,9.35A5.41,5.41,0,0,1,54,26.44v18.7a5.41,5.41,0,0,1-2.72,4.69L35.06,59.18A5.48,5.48,0,0,1,32.34,59.9Zm0-45.61a2.81,2.81,0,0,0-1.41.38L14.75,24a2.83,2.83,0,0,0-1.4,2.43v18.7a2.81,2.81,0,0,0,1.41,2.43l16.18,9.34a2.82,2.82,0,0,0,2.81,0l16.19-9.34a2.82,2.82,0,0,0,1.4-2.43V26.44A2.83,2.83,0,0,0,49.94,24L33.75,14.67A2.81,2.81,0,0,0,32.35,14.29Z"/><path class="cls-1" d="M32.35,48.05A2.73,2.73,0,0,1,31,47.68l-8.22-4.74a2.78,2.78,0,0,1-1.39-2.41V31.05a2.78,2.78,0,0,1,1.39-2.41L31,23.9a2.78,2.78,0,0,1,2.79,0L42,28.64a2.78,2.78,0,0,1,1.39,2.41v9.48A2.78,2.78,0,0,1,42,42.94l-8.21,4.74A2.76,2.76,0,0,1,32.35,48.05Zm0-22.78a1.07,1.07,0,0,0-.52.14l-8.22,4.74a1,1,0,0,0-.51.9v9.48a1,1,0,0,0,.51.9l8.22,4.74a1,1,0,0,0,1,0l8.22-4.74a1,1,0,0,0,.52-.9V31.05a1,1,0,0,0-.52-.9l-8.22-4.74A1.06,1.06,0,0,0,32.35,25.27Z"/></g></g></svg>