<svg xmlns="http://www.w3.org/2000/svg" xmlns:xlink="http://www.w3.org/1999/xlink" viewBox="0 0 195.08 217.26"><defs><style>.cls-1{fill:#2d3d66;}.cls-2{fill:url(#linear-gradient);}</style><linearGradient id="linear-gradient" x1="23.32" y1="82.13" x2="171.76" y2="82.13" gradientUnits="userSpaceOnUse"><stop offset="0" stop-color="#e168fd"/><stop offset="1" stop-color="#7b00fc"/></linearGradient></defs><title>akropolis logo portrait color</title><g id="Layer_2" data-name="Layer 2"><g id="Layer_1-2" data-name="Layer 1"><path class="cls-1" d="M25.66,196.69a.71.71,0,0,1,.72-.72H29a.73.73,0,0,1,.72.72v19.55A.73.73,0,0,1,29,217H26.38a.71.71,0,0,1-.72-.72Z"/><path class="cls-1" d="M39.67,196.27a.72.72,0,0,1,.57-.3h3a.64.64,0,0,1,.48,1.08l-7.21,8.12a1.1,1.1,0,0,0,0,1.42l7.8,9.32a.66.66,0,0,1-.54,1.05H40.48a.65.65,0,0,1-.54-.21l-8-9.87a1.5,1.5,0,0,1,0-2Z"/><path class="cls-1" d="M81.76,195.67A10.8,10.8,0,1,1,71,206.5,10.78,10.78,0,0,1,81.76,195.67Zm0,17.69a6.9,6.9,0,1,0-6.87-6.86A6.9,6.9,0,0,0,81.76,213.36Z"/><path class="cls-1" d="M129.49,195.67a10.8,10.8,0,1,1-10.77,10.83A10.78,10.78,0,0,1,129.49,195.67Zm0,17.69a6.9,6.9,0,1,0-6.87-6.86A6.9,6.9,0,0,0,129.49,213.36Z"/><path class="cls-1" d="M147.2,196.54a.57.57,0,0,1,.57-.57h2.76a.59.59,0,0,1,.57.57v16.82h7.65a.57.57,0,0,1,.57.57v2.46a.57.57,0,0,1-.57.57h-11a.57.57,0,0,1-.57-.57Z"/><path class="cls-1" d="M167.91,196.54a.59.59,0,0,1,.57-.57h2.79a.59.59,0,0,1,.57.57v19.85a.59.59,0,0,1-.57.57h-2.79a.59.59,0,0,1-.57-.57Z"/><path class="cls-1" d="M181.44,214l1.08-1.86a.7.7,0,0,1,1-.21c.15.09,2.57,1.86,4.52,1.86a2.5,2.5,0,0,0,2.73-2.31c0-1.52-1.29-2.57-3.81-3.59-2.81-1.14-5.63-2.94-5.63-6.48,0-2.67,2-5.76,6.74-5.76a10.56,10.56,0,0,1,6,2,.74.74,0,0,1,.18,1l-1.14,1.71a.79.79,0,0,1-1,.36c-.24-.15-2.52-1.65-4.17-1.65a2.38,2.38,0,0,0-2.63,2.1c0,1.41,1.1,2.37,3.53,3.36,2.91,1.17,6.27,2.91,6.27,6.77,0,3.09-2.67,5.94-6.9,5.94a9.64,9.64,0,0,1-6.59-2.34C181.32,214.65,181.17,214.5,181.44,214Z"/><path class="cls-1" d="M19.94,216.18,10.7,196a.51.51,0,0,0-.51-.33h-.3a.54.54,0,0,0-.51.33L.06,216.18a.53.53,0,0,0,.51.78H3.18a.9.9,0,0,0,.87-.6l1.47-3.24L7,209.8l2.93-6.6H10l2.82,6.18a.58.58,0,0,1-.18.69l-3.29,2.5a.31.31,0,0,0,.19.55h4.57a.55.55,0,0,1,.51.34l1.32,2.9a.86.86,0,0,0,.87.6h2.61A.53.53,0,0,0,19.94,216.18Z"/><path class="cls-1" d="M62,210.46H58.86a.3.3,0,0,0-.26.44l2.93,5.79A.51.51,0,0,0,62,217h3.15a.57.57,0,0,0,.51-.87l-2.67-5A1.11,1.11,0,0,0,62,210.46Z"/><path class="cls-1" d="M61.56,208.48A6.07,6.07,0,0,0,66,202.42,6.5,6.5,0,0,0,59.46,196H50.89a.57.57,0,0,0-.57.57v19.85a.57.57,0,0,0,.57.57h2.76a.59.59,0,0,0,.57-.57v-7.64h3.32A34,34,0,0,0,61.56,208.48Zm-7.31-8.91h4.88a3,3,0,0,1,3,2.91,3.06,3.06,0,0,1-3,3.06H54.25Z"/><path class="cls-1" d="M109.8,208.48a6.06,6.06,0,0,0,4.43-6.06A6.49,6.49,0,0,0,107.7,196H99.12a.57.57,0,0,0-.57.57v19.85a.57.57,0,0,0,.57.57h2.76a.59.59,0,0,0,.57-.57v-7.64h3.33A34,34,0,0,0,109.8,208.48Zm-7.32-8.91h4.89a3,3,0,0,1,3,2.91,3.06,3.06,0,0,1-3,3.06h-4.89Z"/><path class="cls-2" d="M97.54,164.25A23.13,23.13,0,0,1,86,161.17L34.86,131.64a23.14,23.14,0,0,1-11.54-20V52.6a23.14,23.14,0,0,1,11.54-20L86,3.08a23.12,23.12,0,0,1,23.08,0l51.14,29.52a23.14,23.14,0,0,1,11.54,20v59.06a23.14,23.14,0,0,1-11.54,20l-51.14,29.53A23.13,23.13,0,0,1,97.54,164.25ZM97.54,8A15,15,0,0,0,90,10L38.86,39.55A15.09,15.09,0,0,0,31.33,52.6v59.06a15.12,15.12,0,0,0,7.53,13L90,154.23a15.09,15.09,0,0,0,15.06,0l51.15-29.53a15.09,15.09,0,0,0,7.53-13V52.6a15.09,15.09,0,0,0-7.53-13.05L105.07,10A15.07,15.07,0,0,0,97.54,8Zm0,129.45a12.43,12.43,0,0,1-6.22-1.67L54.17,114.35A12.46,12.46,0,0,1,48,103.57V60.68A12.48,12.48,0,0,1,54.17,49.9L91.32,28.46a12.47,12.47,0,0,1,12.45,0L140.91,49.9a12.48,12.48,0,0,1,6.22,10.78v42.89a12.47,12.47,0,0,1-6.22,10.78l-37.15,21.44A12.43,12.43,0,0,1,97.54,137.46Zm0-104.66a6.37,6.37,0,0,0-3.22.86L57.17,55.1A6.48,6.48,0,0,0,54,60.68v42.89a6.47,6.47,0,0,0,3.23,5.58l37.14,21.44a6.44,6.44,0,0,0,6.44,0l37.15-21.44a6.48,6.48,0,0,0,3.22-5.58V60.68a6.47,6.47,0,0,0-3.23-5.58L100.76,33.66A6.35,6.35,0,0,0,97.54,32.8Zm0,77.47a6.46,6.46,0,0,1-3.19-.85L75.5,98.54A6.41,6.41,0,0,1,72.31,93V71.24a6.38,6.38,0,0,1,3.19-5.52L94.35,54.84a6.38,6.38,0,0,1,6.38,0l18.85,10.88a6.38,6.38,0,0,1,3.19,5.52V93a6.41,6.41,0,0,1-3.19,5.53l-18.85,10.88A6.46,6.46,0,0,1,97.54,110.27Zm0-52.28a2.4,2.4,0,0,0-1.19.31L77.5,69.19a2.38,2.38,0,0,0-1.19,2V93a2.41,2.41,0,0,0,1.19,2.06L96.35,106a2.41,2.41,0,0,0,2.38,0l18.85-10.88A2.4,2.4,0,0,0,118.76,93V71.24a2.37,2.37,0,0,0-1.18-2L98.73,58.3A2.4,2.4,0,0,0,97.54,58Z"/></g></g></svg>