<?xml version="1.0" encoding="UTF-8"?>
<svg width="229px" height="250px" viewBox="0 0 229 250" version="1.1" xmlns="http://www.w3.org/2000/svg" xmlns:xlink="http://www.w3.org/1999/xlink">
    <title>akro-symbol-white</title>
    <g id="Page-1" stroke="none" stroke-width="1" fill="none" fill-rule="evenodd">
        <path d="M114.439854,-2.84217094e-14 C120.461875,-2.84217094e-14 126.130918,1.74217873 131.446983,4.52225117 L131.446983,4.52225117 L211.872522,50.4861155 C222.395051,56.3742237 228.895322,67.4208792 228.87968,79.3882782 L228.87968,79.3882782 L228.87968,170.961217 C228.89339,182.926722 222.393382,193.970906 211.872522,199.858084 L211.872522,199.858084 L131.446983,245.472453 C126.130918,248.607316 120.461875,250 114.439854,250 C108.417833,250 102.748789,248.607316 97.4327244,245.472453 L97.4327244,245.472453 L17.0071859,199.858084 C6.4863253,193.970906 -0.0136827118,182.926722 2.81686073e-05,170.961217 L2.81686073e-05,170.961217 L2.81686073e-05,79.3882782 C-0.0156143423,67.4208792 6.48465701,56.3742237 17.0071859,50.4861155 L17.0071859,50.4861155 L97.4327244,4.52754655 C102.748789,1.39268391 108.417833,-2.84217094e-14 114.439854,-2.84217094e-14 Z M114.439854,10.7919764 C110.443779,10.8029472 106.525453,11.8863236 103.101768,13.9268391 L103.101768,13.9268391 L22.3232509,59.5412086 C15.2369469,63.713965 10.6268383,71.3763742 10.6268383,79.3882782 L10.6268383,79.3882782 L10.6268383,170.611722 C10.6268383,178.967825 15.2369469,186.275444 22.3232509,190.458791 L22.3232509,190.458791 L102.748789,236.073161 C106.3003,238.115558 110.332772,239.195006 114.439854,239.203705 C118.553007,239.240934 122.597536,238.158259 126.130918,236.073161 L126.130918,236.073161 L206.561805,190.808286 C213.648109,186.630234 218.252869,178.967825 218.252869,170.961217 L218.252869,170.961217 L218.252869,79.3882782 C218.252869,71.0321747 213.648109,63.7192603 206.561805,59.5412086 L206.561805,59.5412086 L126.130918,13.9268391 C122.59044,11.8351655 118.338658,10.7919764 114.439854,10.7919764 Z M114.439854,41.0815276 C117.627354,41.086823 120.820201,41.7805173 123.654723,43.8721908 L123.654723,43.8721908 L181.404089,76.6029103 C187.073132,79.7324776 190.618958,85.6527081 190.618958,92.2666328 L190.618958,92.2666328 L190.618958,157.728072 C190.618958,163.997797 187.073132,170.262227 181.404089,173.39709 L181.404089,173.39709 L123.654723,206.127809 C120.820201,207.869988 117.627354,208.563682 114.439854,208.563682 C111.252354,208.563682 108.064854,207.869988 105.230333,206.122514 L105.230333,206.122514 L47.4756187,173.39709 C41.8065756,170.262227 38.2660977,164.347292 38.2660977,157.728072 L38.2660977,157.728072 L38.2660977,91.9224333 C38.2660977,85.6527081 41.8065756,79.3882782 47.4756187,76.2481201 L47.4756187,76.2481201 L105.230333,43.522696 C108.064854,41.7805173 111.252354,41.0815276 114.439854,41.0815276 L114.439854,41.0815276 Z M114.439854,50.1366207 C113.022593,50.1366207 111.252354,50.4861155 109.835093,51.5346 L109.835093,51.5346 L52.4333574,84.2600241 C49.5988358,86.0022029 47.833945,89.1370655 47.833945,92.2666328 L47.833945,92.2666328 L47.833945,158.077567 C47.833945,161.556629 49.604184,164.341997 52.4387055,166.089471 L52.4387055,166.089471 L110.188071,198.814895 C111.605332,199.858084 113.022593,200.207579 114.79818,200.207579 C116.563071,200.207579 117.98568,199.508589 119.397593,198.814895 L119.397593,198.814895 L177.157655,166.084175 C179.963032,164.360404 181.69462,161.346074 181.757067,158.077567 L181.757067,158.077567 L181.757067,92.2666328 C181.757067,88.7875707 179.986828,86.0022029 177.152307,84.2600241 L177.152307,84.2600241 L119.044614,51.5293046 C117.627354,50.4861155 116.210093,50.1366207 114.439854,50.1366207 Z M114.445202,82.173646 C116.210093,82.173646 117.627354,82.5178454 119.044614,83.5663299 L119.044614,83.5663299 L148.812439,100.278537 C151.617816,102.002308 153.349404,105.016638 153.411851,108.285145 L153.411851,108.285145 L153.411851,142.059054 C153.411851,145.543411 151.641612,148.323484 148.807091,150.070958 L148.807091,150.070958 L119.044614,166.783165 C117.627354,167.826354 116.210093,168.175849 114.439854,168.175849 C113.022593,168.175849 111.252354,167.476859 109.835093,166.783165 L109.835093,166.783165 L80.0726168,150.070958 C77.2380952,148.328779 75.4678563,145.193917 75.4678563,142.059054 L75.4678563,142.059054 L75.4678563,108.285145 C75.4678563,104.806083 77.2380952,102.020716 80.0726168,100.278537 L80.0726168,100.278537 L109.835093,83.5663299 C111.252354,82.5178454 112.669615,82.173646 114.439854,82.173646 L114.439854,82.173646 Z M114.792832,90.5297494 L114.086876,90.5297494 L84.3243992,107.236661 L83.971421,141.709559 L114.086876,159.120756 L144.555309,142.408549 L144.908287,107.935651 L114.792832,90.5297494 Z" id="akro-symbol-white" fill="#FFFFFF"></path>
    </g>
</svg>