<?xml version="1.0" encoding="utf-8"?>
<!-- Generator: Adobe Illustrator 23.0.1, SVG Export Plug-In . SVG Version: 6.00 Build 0)  -->
<svg version="1.2" baseProfile="tiny" id="Layer_1" xmlns="http://www.w3.org/2000/svg" xmlns:xlink="http://www.w3.org/1999/xlink"
	 x="0px" y="0px" viewBox="0 0 16 16" xml:space="preserve">
<path fill="#FFFFFF" d="M8,1.029435c0.243351,0,0.483379,0.064319,0.694133,0.186004l4.834398,2.79114
	c0.428164,0.247199,0.694143,0.707884,0.694143,1.202281v5.58228c0,0.494397-0.265979,0.955083-0.694143,1.202281L8.694133,14.78457
	C8.483388,14.906236,8.24337,14.970554,8,14.970554c-0.243361,0-0.483388-0.064319-0.694133-0.185994l-4.834399-2.79114
	c-0.428164-0.247198-0.694142-0.707884-0.694142-1.202281v-5.58228c0-0.494397,0.265978-0.955082,0.694142-1.202281
	l4.834399-2.79114C7.516621,1.093754,7.756649,1.029435,8,1.029435 M8.000004,0.38158
	c-0.351539,0-0.703079,0.090931-1.018072,0.272792l-4.834399,2.79114C1.517557,3.809233,1.129466,4.481415,1.129466,5.208859
	v5.58228c0,0.727444,0.388092,1.399626,1.018068,1.763349l4.834399,2.79114c0.314993,0.181861,0.666533,0.272791,1.018072,0.272791
	c0.351539,0,0.703075-0.09093,1.018064-0.272791l4.834398-2.79114c0.629976-0.363723,1.018067-1.035905,1.018067-1.763349v-5.58228
	c0-0.727444-0.388091-1.399626-1.018067-1.763348l-4.834398-2.79114C8.703079,0.47251,8.351542,0.38158,8.000004,0.38158
	L8.000004,0.38158z"/>
<path fill="#FFFFFF" d="M8,3.434693c0.097343,0,0.193356,0.025722,0.277662,0.074394l3.472751,2.005005
	c0.171262,0.098887,0.277653,0.283158,0.277653,0.480912v4.009991c0,0.197755-0.106391,0.382026-0.277653,0.480913
	l-3.47274,2.004995C8.193356,12.539585,8.097335,12.565307,8,12.565307s-0.193356-0.025722-0.277663-0.074394l-3.47275-2.005004
	c-0.171262-0.098887-0.277653-0.283158-0.277653-0.480913V5.995004c0-0.197754,0.106391-0.382025,0.277653-0.480912
	l3.472759-2.005005C7.806644,3.460415,7.902656,3.434693,8,3.434693 M8,2.87938c-0.191751,0-0.383502,0.049598-0.555315,0.148795
	L3.971934,5.03318C3.628306,5.231573,3.416619,5.598218,3.416619,5.995004v4.009991c0,0.396787,0.211687,0.763433,0.555316,0.961825
	l3.47275,2.005005C7.616498,13.071022,7.808249,13.12062,8,13.12062s0.383501-0.049598,0.555316-0.148794l3.47275-2.005005
	c0.343629-0.198393,0.555316-0.565039,0.555316-0.961825V5.995004c0-0.396786-0.211687-0.763432-0.555316-0.961824
	l-3.47275-2.005005C8.383501,2.928978,8.191751,2.87938,8,2.87938L8,2.87938z"/>
<path fill="#FFFFFF" d="M8,5.898908l0.023141,0.006209l1.80266,1.067473L9.80266,9.067483l-1.825801,1.0274L6.174199,9.02741
	L6.19734,6.932517l1.779548-1.02742C7.984001,5.900993,7.991782,5.898908,8,5.898908 M8,5.389876
	c-0.095873,0-0.191746,0.0248-0.277653,0.074401L5.942828,6.491678C5.771014,6.590879,5.665165,6.774197,5.665165,6.97259v2.05482
	c0,0.198394,0.105848,0.381712,0.277662,0.480913l1.779519,1.0274C7.808254,10.585323,7.904127,10.610124,8,10.610124
	s0.191746-0.0248,0.277654-0.074401l1.779518-1.0274c0.171814-0.099201,0.277663-0.282519,0.277663-0.480913V6.97259
	c0-0.198393-0.105849-0.381711-0.277663-0.480912L8.277654,5.464277C8.191746,5.414676,8.095873,5.389876,8,5.389876L8,5.389876z"/>
</svg>
