<?xml version="1.0" encoding="utf-8"?>
<!-- Generator: Adobe Illustrator 16.0.0, SVG Export Plug-In . SVG Version: 6.00 Build 0)  -->
<!DOCTYPE svg PUBLIC "-//W3C//DTD SVG 1.1//EN" "http://www.w3.org/Graphics/SVG/1.1/DTD/svg11.dtd">
<svg version="1.1" id="Layer_1" xmlns="http://www.w3.org/2000/svg" xmlns:xlink="http://www.w3.org/1999/xlink" x="0px" y="0px"
	 width="959.76px" height="540px" viewBox="0 0 959.76 540" enable-background="new 0 0 959.76 540" xml:space="preserve">
<title>akropolis landscape mono</title>
<g id="Layer_2">
	<g id="Layer_1-2">
		<path fill="#FFFFFF" d="M359.159,234.059c-0.018-1.383,1.089-2.519,2.473-2.536c0.021,0,0.042,0,0.063,0h9.393
			c1.398,0.016,2.533,1.137,2.567,2.536v69.314c-0.034,1.399-1.168,2.52-2.567,2.537h-9.393c-1.383,0.017-2.519-1.09-2.536-2.474
			c0-0.021,0-0.042,0-0.063V234.059z"/>
		<path fill="#FFFFFF" d="M408.812,232.588c0.459-0.655,1.204-1.05,2.003-1.064h10.645c1.244-0.039,2.284,0.939,2.323,2.183
			c0.019,0.608-0.209,1.199-0.633,1.636l-25.546,28.771c-1.239,1.452-1.239,3.589,0,5.041l27.644,33.06
			c0.762,1.029,0.545,2.48-0.484,3.24c-0.411,0.305-0.913,0.465-1.425,0.455h-11.584c-0.723,0.063-1.436-0.201-1.941-0.721
			l-28.552-35.001c-1.673-2.053-1.593-5.021,0.188-6.982L408.812,232.588z"/>
		<path fill="#FFFFFF" d="M558.023,230.459c21.129-0.052,38.299,17.035,38.351,38.164c0.052,21.129-17.034,38.299-38.163,38.351
			c-21.117,0.052-38.282-17.016-38.352-38.132c-0.104-21.094,16.912-38.279,38.007-38.383
			C557.919,230.459,557.971,230.459,558.023,230.459z M558.023,293.074c13.504,0.051,24.492-10.854,24.544-24.358
			c0.052-13.504-10.854-24.493-24.357-24.544s-24.492,10.854-24.544,24.357c0,0.073,0,0.146,0,0.218
			c0.051,13.441,10.916,24.334,24.357,24.42V293.074z"/>
		<path fill="#FFFFFF" d="M727.208,230.459c21.13-0.052,38.3,17.035,38.352,38.164c0.052,21.129-17.035,38.299-38.164,38.351
			c-21.116,0.052-38.281-17.016-38.351-38.132c-0.104-21.094,16.912-38.279,38.007-38.383
			C727.104,230.459,727.156,230.459,727.208,230.459z M727.208,293.074c13.504,0.068,24.507-10.822,24.576-24.327
			c0.068-13.503-10.822-24.506-24.326-24.576c-13.504-0.069-24.507,10.822-24.575,24.326c-0.001,0.083-0.001,0.167,0,0.25
			c0.051,13.429,10.897,24.317,24.325,24.42V293.074z"/>
		<path fill="#FFFFFF" d="M790.042,233.527c0-1.106,0.897-2.003,2.004-2.003h9.768c1.099,0.031,1.986,0.906,2.035,2.003v59.484
			h27.112c1.112,0.017,2.004,0.923,2.004,2.035v8.704c0,1.105-0.897,2.003-2.004,2.003l0,0h-38.884
			c-1.106,0-2.004-0.897-2.004-2.003L790.042,233.527z"/>
		<path fill="#FFFFFF" d="M863.427,233.527c0.049-1.098,0.937-1.972,2.035-2.003h9.894c1.093,0.032,1.971,0.911,2.003,2.003v70.379
			c-0.032,1.092-0.91,1.971-2.003,2.004h-9.894c-1.099-0.032-1.986-0.906-2.035-2.004V233.527z"/>
		<path fill="#FFFFFF" d="M911.39,295.516l3.819-6.605c0.703-1.191,2.239-1.588,3.431-0.885c0.069,0.041,0.137,0.086,0.201,0.133
			c0.532,0.345,9.142,6.605,16.029,6.605c4.871,0.463,9.195-3.111,9.658-7.982c0.006-0.062,0.012-0.125,0.016-0.188
			c0-5.447-4.57-9.142-13.493-12.773c-9.987-4.039-19.974-10.425-19.974-22.948c0-9.392,7.013-20.412,23.918-20.412
			c7.645,0.15,15.061,2.63,21.258,7.106c1.09,0.828,1.361,2.353,0.627,3.506l-4.039,6.074c-0.674,1.383-2.342,1.958-3.726,1.284l0,0
			c-0.845-0.532-8.923-5.854-14.777-5.854s-9.392,4.039-9.392,7.451c0,4.978,3.944,8.39,12.522,11.897
			c10.3,4.132,22.229,10.3,22.229,24.013c0,10.957-9.393,21.038-24.451,21.038c-8.514,0.265-16.823-2.636-23.324-8.14
			C911.046,297.738,910.419,297.206,911.39,295.516z"/>
		<path fill="#FFFFFF" d="M338.871,303.154l-32.747-71.537c-0.287-0.742-1.022-1.212-1.816-1.158h-1.064
			c-0.775-0.012-1.48,0.446-1.785,1.158l-33.061,71.537c-0.486,0.916-0.138,2.054,0.778,2.54c0.309,0.164,0.657,0.239,1.006,0.216
			h9.392c1.403,0.072,2.683-0.798,3.131-2.129l5.228-11.459l5.197-11.803l10.425-23.387h0.125l9.956,21.915
			c0.413,0.851,0.164,1.876-0.595,2.442l-11.678,8.859c-0.484,0.363-0.583,1.051-0.219,1.534c0.207,0.276,0.532,0.438,0.876,0.438
			h16.186c0.797-0.006,1.523,0.461,1.847,1.189l4.665,10.27c0.448,1.331,1.728,2.201,3.131,2.129h9.392
			c1.038-0.02,1.863-0.875,1.845-1.912C339.083,303.704,339.009,303.415,338.871,303.154z"/>
		<path fill="#FFFFFF" d="M488.02,282.898h-11.177c-0.588,0.009-1.057,0.492-1.048,1.08c0.002,0.158,0.039,0.312,0.108,0.454
			l10.395,20.663c0.352,0.611,1.018,0.975,1.722,0.939h11.146c1.104,0.09,2.07-0.73,2.161-1.834
			c0.037-0.459-0.084-0.917-0.345-1.297l-9.393-17.846C490.914,283.712,489.526,282.871,488.02,282.898z"/>
		<path fill="#FFFFFF" d="M486.423,275.854c9.546-2.693,16.012-11.565,15.654-21.477c-0.087-12.708-10.458-22.94-23.167-22.854
			h-0.001H448.51c-1.106,0-2.004,0.897-2.004,2.003v70.379c0,1.106,0.897,2.004,2.004,2.004h9.8
			c1.092-0.033,1.971-0.912,2.003-2.004v-26.987h11.803C476.901,276.853,481.68,276.497,486.423,275.854z M460.47,244.265h17.344
			c5.724,0.032,10.384,4.61,10.52,10.332c0.019,5.869-4.652,10.679-10.52,10.833H460.47V244.265z"/>
		<path fill="#FFFFFF" d="M657.455,275.854c9.546-2.693,16.013-11.565,15.654-21.477c-0.104-12.701-10.466-22.924-23.168-22.854
			h-30.368c-1.106,0-2.004,0.897-2.004,2.003v70.379c0,1.106,0.897,2.004,2.004,2.004h9.705c1.099-0.032,1.986-0.906,2.035-2.004
			v-26.987h11.803C647.913,276.854,652.702,276.498,657.455,275.854z M631.471,244.265h17.344c5.724,0.032,10.384,4.61,10.52,10.332
			c0.019,5.869-4.652,10.679-10.52,10.833h-17.344V244.265z"/>
		<path fill="#FFFFFF" d="M101.248,382.049c-5.494-0.015-10.889-1.46-15.654-4.194l-69.94-40.293
			C5.961,331.898,0.002,321.518,0,310.293v-80.585c0.002-11.226,5.961-21.606,15.654-27.269l69.878-40.292
			c9.7-5.542,21.607-5.542,31.308,0l69.94,40.292c9.692,5.663,15.652,16.043,15.654,27.269v80.585
			c-0.002,11.225-5.961,21.605-15.654,27.269l-69.784,40.292C112.203,380.603,106.773,382.049,101.248,382.049z M101.248,168.877
			c-3.605-0.002-7.148,0.949-10.269,2.755l-69.784,40.292c-6.349,3.673-10.261,10.448-10.269,17.783v80.585
			c0.016,7.34,3.925,14.121,10.269,17.813l69.784,40.262c6.367,3.661,14.201,3.661,20.569,0l69.784-40.262
			c6.344-3.692,10.253-10.474,10.269-17.813v-80.585c-0.008-7.334-3.92-14.11-10.269-17.783l-69.784-40.292
			C108.419,169.817,104.865,168.867,101.248,168.877L101.248,168.877z"/>
		<path fill="#FFFFFF" d="M101.248,345.482c-2.976-0.002-5.9-0.778-8.484-2.254l-50.655-29.272
			c-5.263-3.017-8.511-8.617-8.516-14.684v-58.545c0.011-6.056,3.243-11.649,8.484-14.683l50.687-29.272
			c5.26-3.037,11.74-3.037,17,0l50.655,29.272c5.312,2.984,8.611,8.591,8.641,14.683v58.545c-0.004,6.066-3.252,11.667-8.516,14.684
			l-50.781,29.272C107.17,344.708,104.234,345.484,101.248,345.482z M101.248,202.689c-1.55,0-3.073,0.411-4.414,1.19
			l-50.656,29.209c-2.703,1.583-4.37,4.476-4.383,7.608v58.545c0.007,3.142,1.69,6.042,4.415,7.607l50.655,29.241
			c2.724,1.565,6.074,1.565,8.797,0l50.687-29.241c2.708-1.578,4.376-4.474,4.383-7.607v-58.514c-0.002-3.144-1.67-6.05-4.383-7.639
			l-50.687-29.209c-1.332-0.773-2.843-1.184-4.383-1.19H101.248z"/>
		<path fill="#FFFFFF" d="M101.279,308.383c-1.485-0.012-2.942-0.411-4.227-1.158l-25.734-14.84
			c-2.695-1.557-4.354-4.433-4.352-7.545v-29.68c-0.002-3.112,1.657-5.989,4.352-7.545l25.734-14.84
			c2.701-1.567,6.034-1.567,8.735,0l25.704,14.84c2.695,1.556,4.354,4.433,4.352,7.545v29.68c0.003,3.112-1.656,5.988-4.352,7.545
			l-25.704,14.84C104.419,308.016,102.86,308.416,101.279,308.383z M101.279,237.064c-0.571,0.005-1.131,0.156-1.628,0.438
			l-25.734,14.84c-1.015,0.569-1.629,1.655-1.597,2.817v29.68c-0.033,1.162,0.582,2.248,1.597,2.817l25.734,14.84
			c0.969,0.56,2.162,0.56,3.131,0l25.735-14.84c1.026-0.562,1.654-1.647,1.628-2.817v-29.68c0.026-1.169-0.602-2.256-1.628-2.817
			l-25.735-14.84C102.323,237.239,101.808,237.089,101.279,237.064z"/>
	</g>
</g>
</svg>
