<?xml version="1.0" encoding="UTF-8"?>
<svg width="187px" height="200px" viewBox="0 0 187 200" version="1.1" xmlns="http://www.w3.org/2000/svg" xmlns:xlink="http://www.w3.org/1999/xlink">
    <title>adel white on color</title>
    <g id="Page-1" stroke="none" stroke-width="1" fill="none" fill-rule="evenodd">
        <g id="adel-logo-copy" transform="translate(-776.000000, -1332.000000)" fill="#FFFFFF">
            <g id="adel-white-on-color" transform="translate(776.000000, 1332.000000)">
                <path d="M93.1034483,0 C98.0027113,0 102.614806,1.39374298 106.939733,3.61780094 L106.939733,3.61780094 L172.370566,40.3888924 C180.931253,45.0993789 186.2196,53.9367033 186.206874,63.5106225 L186.206874,63.5106225 L186.206874,136.768973 C186.218028,146.341378 180.929895,155.176725 172.370566,159.886467 L172.370566,159.886467 L106.939733,196.377963 C102.614806,198.885853 98.0027113,200 93.1034483,200 C88.2041852,200 83.5920903,198.885853 79.2671636,196.377963 L79.2671636,196.377963 L13.8363306,159.886467 C5.27700125,155.176725 -0.0111316784,146.341378 2.29167938e-05,136.768973 L2.29167938e-05,136.768973 L2.29167938e-05,63.5106225 C-0.0127031717,53.9367033 5.275644,45.0993789 13.8363306,40.3888924 L13.8363306,40.3888924 L79.2671636,3.62203724 C83.5920903,1.11414713 88.2041852,0 93.1034483,0 Z M93.1034483,8.63358116 C89.8524101,8.64235776 86.6646248,9.50905886 83.8792585,11.1414713 L83.8792585,11.1414713 L18.1612573,47.6329669 C12.3961387,50.971172 8.64554832,57.1010993 8.64554832,63.5106225 L8.64554832,63.5106225 L8.64554832,136.489377 C8.64554832,143.17426 12.3961387,149.020355 18.1612573,152.367033 L18.1612573,152.367033 L83.5920903,188.858529 C85.9106472,190.169661 88.481164,190.984742 91.1328202,191.259212 L91.1326839,174.845963 L85.7856311,174.846393 C79.213577,174.846393 75.7309566,170.854427 75.3377699,162.870495 C67.9231704,161.040776 60.6987276,157.63622 55.5962887,152.727294 C48.1022751,145.517496 43.9204306,135.626311 43.7760058,125.878243 L43.7721352,125.356178 L43.771689,104.344592 C41.2996338,102.075468 39.7766839,98.9746426 39.7766839,95.5555556 C39.7766839,88.7537983 45.8037723,83.2115639 53.3401469,82.9710964 L53.3396839,82.9619922 L79.7766839,82.962963 L79.7766839,77.7777778 L53.3633263,77.7768083 C53.3829178,74.9594378 53.4132792,72.833002 53.4584593,71.7786707 C53.4785265,71.310381 53.5047509,70.8406926 53.5374667,70.3700986 L79.7766839,70.3703704 L79.7766839,65.1851852 L54.1748101,65.1858344 C56.0532844,54.7559011 61.7210646,44.7678157 74.8138055,40.5858063 L74.8148148,48.8888889 L80,48.8888889 L79.9987574,39.3143693 C82.2962395,38.9048584 84.7789669,38.6475131 87.4600614,38.5616942 C88.0092855,38.5441142 89.684169,38.5318423 91.1119785,38.5249897 L91.1111111,48.8888889 L96.2962963,48.8888889 L96.2964,38.5273447 C97.6103846,38.533073 98.9093211,38.5415758 99.3007177,38.5528122 C102.227329,38.636831 104.92487,38.9577524 107.407397,39.4830544 L107.407407,48.8888889 L112.592593,48.8888889 L112.592863,40.9799346 C124.482731,45.423262 130.234813,55.2734908 132.159256,65.185632 L106.443351,65.1851852 L106.443351,70.3703704 L132.830592,70.3708216 C132.86218,70.8423413 132.885796,71.3118246 132.901698,71.7786707 L132.9026,71.8262011 C132.907517,72.2010899 132.911897,74.4364051 132.915757,77.7770059 L106.443351,77.7777778 L106.443351,82.962963 L132.920713,82.96223 L132.920722,82.9722726 L132.920722,82.9722726 C140.438441,83.2319818 146.443351,88.7663247 146.443351,95.5555556 C146.443351,98.8047441 145.067995,101.766515 142.809763,104.000228 L142.809172,124.187903 C142.809172,136.337717 136.846201,145.687733 131.74318,151.069611 C127.998268,155.019165 120.61967,160.364244 112.297717,162.929561 C111.914124,170.745443 108.684192,174.716539 102.607891,174.843261 L102.305133,174.846393 L96.3176839,174.845963 L96.3189491,191.114158 C98.5336296,190.74897 100.669442,189.987384 102.614806,188.858529 L102.614806,188.858529 L168.04999,152.646629 C173.815109,149.304188 177.561348,143.17426 177.561348,136.768973 L177.561348,136.768973 L177.561348,63.5106225 C177.561348,56.8257398 173.815109,50.9754083 168.04999,47.6329669 L168.04999,47.6329669 L102.614806,11.1414713 C99.7344224,9.46813243 96.2753513,8.63358116 93.1034483,8.63358116 Z M80.261489,163.852769 C80.7552372,168.322072 82.7257006,170.156462 87.4673559,170.156462 L100.609261,170.156462 C103.760017,170.156462 105.855765,169.557093 107.062911,167.263816 C107.534661,166.367608 107.48987,165.297891 107.50603,164.055921 C106.012729,164.294539 104.505793,164.42462 102.999836,164.42462 L102.501555,164.424003 C99.8710598,164.417423 98.9440425,164.361649 94.1627309,164.42462 C93.5342924,164.432897 90.6682455,164.582994 86.2525209,164.42462 C84.3826582,164.357556 82.4601036,164.179865 80.5197088,163.892802 L80.261489,163.852769 Z M137.813818,107.171276 C136.303231,107.73878 134.658639,108.077269 132.934313,108.138185 L132.933684,108.147992 L106.443351,108.148148 L106.443351,113.333333 L132.935842,113.34282 C132.93629,114.89402 132.93669,116.307405 132.937028,117.536975 L132.937684,120.739992 L106.443351,120.740741 L106.443351,125.925926 L132.733314,125.925436 C131.458944,136.317594 124.290846,146.215571 112.593327,150.971874 L112.592593,144.444444 L107.407407,144.444444 L107.407856,152.656911 C104.604092,153.355095 101.596704,153.781338 98.3995672,153.888379 C98.0835807,153.898958 97.2312127,153.907323 96.2962686,153.913447 L96.2962963,144.444444 L91.1111111,144.444444 L91.1118277,153.920105 C89.8821381,153.91491 88.5140176,153.906253 88.1212891,153.894184 C85.2382948,153.805586 82.5304,153.485265 79.9992762,152.96235 L80,144.444444 L74.8148148,144.444444 L74.8142989,151.53101 C61.9872599,147.027051 54.8127198,136.75384 53.5898768,125.92534 L79.7766839,125.925926 L79.7766839,120.740741 L53.3997918,120.740412 C53.396425,118.846366 53.3890925,116.291128 53.3804781,113.333967 L79.7766839,113.333333 L79.7766839,108.148148 L53.3655903,108.148456 L53.3655708,108.141432 C51.7943523,108.093153 50.2887117,107.815152 48.8892383,107.343359 L48.8888889,124.187903 C48.8888889,131.444013 51.7641939,140.770627 58.4921264,147.490201 C65.2200588,154.209774 76.1857552,159.171661 85.1851852,159.127167 C94.1846152,159.082673 93.5926957,159.134906 94.1627309,159.127167 C98.7625425,159.064714 101.218173,159.076453 103.955915,158.921442 C112.592593,158.432433 122.207028,153.209324 127.46153,147.490201 C132.716033,141.771078 137.813136,134.295159 137.813136,124.187903 L137.813818,107.171276 Z M93.387812,87.2237759 C93.0178381,87.2237759 92.666452,87.2971149 92.3336538,87.459568 L92.1688037,87.5482938 L86.4041976,90.8424346 L86.2572513,90.9316821 C85.6412672,91.3365942 85.2481181,92.000919 85.1921016,92.7304156 L85.1851872,92.9140351 L85.1851872,99.4776457 L85.1911628,99.6482039 C85.2432632,100.378348 85.6330625,101.044454 86.2462995,101.452377 L86.4041976,101.548867 L92.1688037,104.818336 L92.3336538,104.907062 C92.666452,105.069515 93.0178381,105.142854 93.387812,105.142854 C93.757786,105.142854 94.1091721,105.069515 94.4419703,104.907062 L94.6068204,104.818336 L100.371426,101.548867 L100.51835,101.459634 C101.134243,101.054791 101.527378,100.390611 101.583495,99.6612354 L101.590437,99.4776457 L101.590437,92.9140351 L101.584487,92.7434492 C101.532488,92.0131836 101.142676,91.3469337 100.529349,90.9389402 L100.371426,90.8424346 L94.6068204,87.5479142 L94.4141941,87.4547146 C94.0896363,87.3104933 93.7475089,87.2237759 93.387812,87.2237759 Z M132.924159,88.1645226 L132.924558,88.3411954 C132.92559,89.9606806 132.926561,91.6348915 132.927472,93.3325659 L116.813721,93.3333333 L116.813721,98.5185185 L132.930054,98.5192488 C132.930707,99.9324612 132.93132,101.340141 132.931894,102.724741 L134.472128,102.721901 C138.026035,101.889334 140.648144,98.9964251 140.648144,95.5555556 C140.648144,91.6313943 137.237723,88.4199324 132.924159,88.1645226 Z M53.068865,88.1481481 C48.3187616,88.1481481 44.4680419,91.4645574 44.4680419,95.5555556 C44.4680419,98.9966751 47.1925171,101.889755 50.8850407,102.722082 L53.0686839,102.720963 L53.0686839,98.5179922 L70.179054,98.5185185 L70.179054,93.3333333 L53.0686839,93.3329922 L53.068865,88.1481481 Z" id="Combined-Shape"></path>
            </g>
        </g>
    </g>
</svg>