<?xml version="1.0" encoding="UTF-8"?>
<svg width="1147px" height="250px" viewBox="0 0 1147 250" version="1.1" xmlns="http://www.w3.org/2000/svg" xmlns:xlink="http://www.w3.org/1999/xlink">
    <title>akropolis-logo-white</title>
    <defs>
        <path d="M303.9875,168.75 L312.9875,144.5625 L346.9625,144.5625 L355.7375,168.75 L367.55,168.75 L336.1625,88.425 L324.35,88.425 L293.075,168.75 L303.9875,168.75 Z M343.5875,135.5625 L316.3625,135.5625 L329.975,98.1 L330.2,98.1 L343.5875,135.5625 Z M413.6125,168.75 L413.6125,140.625 L427,128.1375 L456.025,168.75 L469.525,168.75 L434.3125,120.825 L468.175,88.425 L454.3375,88.425 L413.6125,128.475 L413.6125,88.425 L402.925,88.425 L402.925,168.75 L413.6125,168.75 Z M516.15,168.75 L516.15,134.4375 L542.25,134.4375 C544.875,134.4375 546.975,134.83125 548.55,135.61875 C550.125,136.40625 551.4,137.45625 552.375,138.76875 C553.35,140.08125 554.0625,141.61875 554.5125,143.38125 C554.9625,145.14375 555.3375,147 555.6375,148.95 C556.0125,150.9 556.2375,152.8875 556.3125,154.9125 C556.3875,156.9375 556.4625,158.83125 556.5375,160.59375 C556.6125,162.35625 556.78125,163.95 557.04375,165.375 C557.30625,166.8 557.8125,167.925 558.5625,168.75 L570.4875,168.75 C569.3625,167.4 568.51875,165.84375 567.95625,164.08125 C567.39375,162.31875 566.9625,160.4625 566.6625,158.5125 C566.3625,156.5625 566.175,154.575 566.1,152.55 C566.025,150.525 565.9125,148.5375 565.7625,146.5875 C565.5375,144.6375 565.21875,142.7625 564.80625,140.9625 C564.39375,139.1625 563.75625,137.53125 562.89375,136.06875 C562.03125,134.60625 560.86875,133.35 559.40625,132.3 C557.94375,131.25 556.05,130.5 553.725,130.05 L553.725,129.825 C558.6,128.475 562.14375,125.9625 564.35625,122.2875 C566.56875,118.6125 567.675,114.3375 567.675,109.4625 C567.675,102.9375 565.51875,97.8 561.20625,94.05 C556.89375,90.3 550.9125,88.425 543.2625,88.425 L505.4625,88.425 L505.4625,168.75 L516.15,168.75 Z M538.425,125.4375 L516.15,125.4375 L516.15,97.425 L542.7,97.425 C547.725,97.425 551.3625,98.7 553.6125,101.25 C555.8625,103.8 556.9875,107.1 556.9875,111.15 C556.9875,114.075 556.48125,116.45625 555.46875,118.29375 C554.45625,120.13125 553.10625,121.59375 551.41875,122.68125 C549.73125,123.76875 547.7625,124.5 545.5125,124.875 C543.2625,125.25 540.9,125.4375 538.425,125.4375 Z M644,170.55 C650.375,170.55 655.9625,169.40625 660.7625,167.11875 C665.5625,164.83125 669.575,161.7375 672.8,157.8375 C676.025,153.9375 678.44375,149.45625 680.05625,144.39375 C681.66875,139.33125 682.475,134.0625 682.475,128.5875 C682.475,123.1125 681.66875,117.84375 680.05625,112.78125 C678.44375,107.71875 676.025,103.2375 672.8,99.3375 C669.575,95.4375 665.5625,92.325 660.7625,90 C655.9625,87.675 650.375,86.5125 644,86.5125 C637.625,86.5125 632.0375,87.675 627.2375,90 C622.4375,92.325 618.425,95.4375 615.2,99.3375 C611.975,103.2375 609.55625,107.71875 607.94375,112.78125 C606.33125,117.84375 605.525,123.1125 605.525,128.5875 C605.525,134.0625 606.33125,139.33125 607.94375,144.39375 C609.55625,149.45625 611.975,153.9375 615.2,157.8375 C618.425,161.7375 622.4375,164.83125 627.2375,167.11875 C632.0375,169.40625 637.625,170.55 644,170.55 Z M644,161.6625 C639.125,161.6625 634.925,160.70625 631.4,158.79375 C627.875,156.88125 624.9875,154.35 622.7375,151.2 C620.4875,148.05 618.8375,144.50625 617.7875,140.56875 C616.7375,136.63125 616.2125,132.6375 616.2125,128.5875 C616.2125,124.5375 616.7375,120.54375 617.7875,116.60625 C618.8375,112.66875 620.4875,109.125 622.7375,105.975 C624.9875,102.825 627.875,100.29375 631.4,98.38125 C634.925,96.46875 639.125,95.5125 644,95.5125 C648.875,95.5125 653.075,96.46875 656.6,98.38125 C660.125,100.29375 663.0125,102.825 665.2625,105.975 C667.5125,109.125 669.1625,112.66875 670.2125,116.60625 C671.2625,120.54375 671.7875,124.5375 671.7875,128.5875 C671.7875,132.6375 671.2625,136.63125 670.2125,140.56875 C669.1625,144.50625 667.5125,148.05 665.2625,151.2 C663.0125,154.35 660.125,156.88125 656.6,158.79375 C653.075,160.70625 648.875,161.6625 644,161.6625 Z M733.7125,168.75 L733.7125,135.9 L758.2375,135.9 C766.3375,135.975 772.46875,133.9125 776.63125,129.7125 C780.79375,125.5125 782.875,119.6625 782.875,112.1625 C782.875,104.6625 780.79375,98.83125 776.63125,94.66875 C772.46875,90.50625 766.3375,88.425 758.2375,88.425 L723.025,88.425 L723.025,168.75 L733.7125,168.75 Z M754.6375,126.9 L733.7125,126.9 L733.7125,97.425 L754.6375,97.425 C760.7125,97.425 765.15625,98.68125 767.96875,101.19375 C770.78125,103.70625 772.1875,107.3625 772.1875,112.1625 C772.1875,116.9625 770.78125,120.6375 767.96875,123.1875 C765.15625,125.7375 760.7125,126.975 754.6375,126.9 Z M857.4,170.55 C863.775,170.55 869.3625,169.40625 874.1625,167.11875 C878.9625,164.83125 882.975,161.7375 886.2,157.8375 C889.425,153.9375 891.84375,149.45625 893.45625,144.39375 C895.06875,139.33125 895.875,134.0625 895.875,128.5875 C895.875,123.1125 895.06875,117.84375 893.45625,112.78125 C891.84375,107.71875 889.425,103.2375 886.2,99.3375 C882.975,95.4375 878.9625,92.325 874.1625,90 C869.3625,87.675 863.775,86.5125 857.4,86.5125 C851.025,86.5125 845.4375,87.675 840.6375,90 C835.8375,92.325 831.825,95.4375 828.6,99.3375 C825.375,103.2375 822.95625,107.71875 821.34375,112.78125 C819.73125,117.84375 818.925,123.1125 818.925,128.5875 C818.925,134.0625 819.73125,139.33125 821.34375,144.39375 C822.95625,149.45625 825.375,153.9375 828.6,157.8375 C831.825,161.7375 835.8375,164.83125 840.6375,167.11875 C845.4375,169.40625 851.025,170.55 857.4,170.55 Z M857.4,161.6625 C852.525,161.6625 848.325,160.70625 844.8,158.79375 C841.275,156.88125 838.3875,154.35 836.1375,151.2 C833.8875,148.05 832.2375,144.50625 831.1875,140.56875 C830.1375,136.63125 829.6125,132.6375 829.6125,128.5875 C829.6125,124.5375 830.1375,120.54375 831.1875,116.60625 C832.2375,112.66875 833.8875,109.125 836.1375,105.975 C838.3875,102.825 841.275,100.29375 844.8,98.38125 C848.325,96.46875 852.525,95.5125 857.4,95.5125 C862.275,95.5125 866.475,96.46875 870,98.38125 C873.525,100.29375 876.4125,102.825 878.6625,105.975 C880.9125,109.125 882.5625,112.66875 883.6125,116.60625 C884.6625,120.54375 885.1875,124.5375 885.1875,128.5875 C885.1875,132.6375 884.6625,136.63125 883.6125,140.56875 C882.5625,144.50625 880.9125,148.05 878.6625,151.2 C876.4125,154.35 873.525,156.88125 870,158.79375 C866.475,160.70625 862.275,161.6625 857.4,161.6625 Z M989.6375,168.75 L989.6375,159.75 L947.1125,159.75 L947.1125,88.425 L936.425,88.425 L936.425,168.75 L989.6375,168.75 Z M1037.6125,168.75 L1037.6125,88.425 L1026.925,88.425 L1026.925,168.75 L1037.6125,168.75 Z M1111.6875,170.55 C1115.3625,170.55 1119.05625,170.11875 1122.76875,169.25625 C1126.48125,168.39375 1129.8375,167.00625 1132.8375,165.09375 C1135.8375,163.18125 1138.29375,160.70625 1140.20625,157.66875 C1142.11875,154.63125 1143.075,150.975 1143.075,146.7 C1143.075,142.725 1142.34375,139.425 1140.88125,136.8 C1139.41875,134.175 1137.46875,132 1135.03125,130.275 C1132.59375,128.55 1129.8375,127.18125 1126.7625,126.16875 C1123.6875,125.15625 1120.55625,124.275 1117.36875,123.525 C1114.18125,122.775 1111.05,122.08125 1107.975,121.44375 C1104.9,120.80625 1102.14375,120 1099.70625,119.025 C1097.26875,118.05 1095.31875,116.79375 1093.85625,115.25625 C1092.39375,113.71875 1091.6625,111.7125 1091.6625,109.2375 C1091.6625,106.6125 1092.16875,104.41875 1093.18125,102.65625 C1094.19375,100.89375 1095.54375,99.4875 1097.23125,98.4375 C1098.91875,97.3875 1100.85,96.6375 1103.025,96.1875 C1105.2,95.7375 1107.4125,95.5125 1109.6625,95.5125 C1115.2125,95.5125 1119.76875,96.80625 1123.33125,99.39375 C1126.89375,101.98125 1128.975,106.1625 1129.575,111.9375 L1139.7,111.9375 C1139.55,107.5125 1138.70625,103.70625 1137.16875,100.51875 C1135.63125,97.33125 1133.53125,94.6875 1130.86875,92.5875 C1128.20625,90.4875 1125.1125,88.95 1121.5875,87.975 C1118.0625,87 1114.2375,86.5125 1110.1125,86.5125 C1106.4375,86.5125 1102.85625,86.98125 1099.36875,87.91875 C1095.88125,88.85625 1092.76875,90.28125 1090.03125,92.19375 C1087.29375,94.10625 1085.1,96.54375 1083.45,99.50625 C1081.8,102.46875 1080.975,105.975 1080.975,110.025 C1080.975,113.7 1081.70625,116.75625 1083.16875,119.19375 C1084.63125,121.63125 1086.58125,123.61875 1089.01875,125.15625 C1091.45625,126.69375 1094.2125,127.93125 1097.2875,128.86875 C1100.3625,129.80625 1103.49375,130.63125 1106.68125,131.34375 C1109.86875,132.05625 1113,132.75 1116.075,133.425 C1119.15,134.1 1121.90625,134.98125 1124.34375,136.06875 C1126.78125,137.15625 1128.73125,138.5625 1130.19375,140.2875 C1131.65625,142.0125 1132.3875,144.2625 1132.3875,147.0375 C1132.3875,149.9625 1131.7875,152.3625 1130.5875,154.2375 C1129.3875,156.1125 1127.8125,157.59375 1125.8625,158.68125 C1123.9125,159.76875 1121.71875,160.5375 1119.28125,160.9875 C1116.84375,161.4375 1114.425,161.6625 1112.025,161.6625 C1109.025,161.6625 1106.1,161.2875 1103.25,160.5375 C1100.4,159.7875 1097.90625,158.625 1095.76875,157.05 C1093.63125,155.475 1091.90625,153.46875 1090.59375,151.03125 C1089.28125,148.59375 1088.625,145.6875 1088.625,142.3125 L1078.5,142.3125 C1078.5,147.1875 1079.38125,151.40625 1081.14375,154.96875 C1082.90625,158.53125 1085.30625,161.45625 1088.34375,163.74375 C1091.38125,166.03125 1094.90625,167.7375 1098.91875,168.8625 C1102.93125,169.9875 1107.1875,170.55 1111.6875,170.55 Z" id="path-1"></path>
    </defs>
    <g id="Page-1" stroke="none" stroke-width="1" fill="none" fill-rule="evenodd">
        <g id="akropolis-logo-white" fill="#FFFFFF">
            <path d="M113.538895,1.27009514e-13 C119.513506,1.27009514e-13 125.137919,1.72846296 130.412131,4.48664853 L130.412131,4.48664853 L210.204498,50.0886499 C220.644186,55.9304023 227.093282,66.8900901 227.077762,78.7632725 L227.077762,78.7632725 L227.077762,169.615278 C227.091365,181.486582 220.64253,192.443818 210.204498,198.284647 L210.204498,198.284647 L130.412131,243.539905 C125.137919,246.650088 119.513506,248.031807 113.538895,248.031807 C107.564284,248.031807 101.939872,246.650088 96.6656589,243.539905 L96.6656589,243.539905 L16.8732922,198.284647 C6.43525995,192.443818 -0.0135749909,181.486582 2.79468386e-05,169.615278 L2.79468386e-05,169.615278 L2.79468386e-05,78.7632725 C-0.0154914142,66.8900901 6.4336048,55.9304023 16.8732922,50.0886499 L16.8732922,50.0886499 L96.6656589,4.49190221 C101.939872,1.38171963 107.564284,1.27009514e-13 113.538895,1.27009514e-13 Z M113.538895,10.7070137 C109.574281,10.7178981 105.686802,11.7927453 102.290071,13.8171963 L102.290071,13.8171963 L22.147505,59.0724544 C15.11699,63.2123596 10.5431756,70.8144443 10.5431756,78.7632725 L10.5431756,78.7632725 L10.5431756,169.268535 C10.5431756,177.558853 15.11699,184.80894 22.147505,188.959353 L22.147505,188.959353 L101.939872,234.214611 C105.463422,236.240929 109.464148,237.311879 113.538895,237.32051 C117.619666,237.357445 121.632354,236.283294 125.137919,234.214611 L125.137919,234.214611 L204.935591,189.306096 C211.966106,185.160938 216.534615,177.558853 216.534615,169.615278 L216.534615,169.615278 L216.534615,78.7632725 C216.534615,70.4729547 211.966106,63.2176132 204.935591,59.0724544 L204.935591,59.0724544 L125.137919,13.8171963 C121.625314,11.74199 117.407005,10.7070137 113.538895,10.7070137 Z M113.538895,40.7581022 C116.7013,40.7633559 119.869012,41.4515888 122.681218,43.5267951 L122.681218,43.5267951 L179.975936,75.9998332 C185.600348,79.1047621 189.118259,84.978384 189.118259,91.5402388 L189.118259,91.5402388 L189.118259,156.486315 C189.118259,162.70668 185.600348,168.921792 179.975936,172.031974 L179.975936,172.031974 L122.681218,204.505012 C119.869012,206.233475 116.7013,206.921708 113.538895,206.921708 C110.37649,206.921708 107.214085,206.233475 104.401879,204.499759 L104.401879,204.499759 L47.1018541,172.031974 C41.477442,168.921792 37.9648375,163.053423 37.9648375,156.486315 L37.9648375,156.486315 L37.9648375,91.1987491 C37.9648375,84.978384 41.477442,78.7632725 47.1018541,75.6478362 L47.1018541,75.6478362 L104.401879,43.1800518 C107.214085,41.4515888 110.37649,40.7581022 113.538895,40.7581022 L113.538895,40.7581022 Z M113.538895,49.7419066 C112.132792,49.7419066 110.37649,50.0886499 108.970387,51.1288799 L108.970387,51.1288799 L52.0205616,83.5966643 C49.2083556,85.3251273 47.4573594,88.4353099 47.4573594,91.5402388 L47.4573594,91.5402388 L47.4573594,156.833058 C47.4573594,160.284731 49.2136616,163.04817 52.0258677,164.781886 L52.0258677,164.781886 L109.320586,197.249671 C110.726689,198.284647 112.132792,198.63139 113.8944,198.63139 C115.645397,198.63139 117.056806,197.937904 118.457603,197.249671 L118.457603,197.249671 L175.762933,164.776633 C178.546224,163.066432 180.26418,160.075834 180.326135,156.833058 L180.326135,156.833058 L180.326135,91.5402388 C180.326135,88.0885665 178.569833,85.3251273 175.757627,83.5966643 L175.757627,83.5966643 L118.107403,51.1236262 C116.7013,50.0886499 115.295197,49.7419066 113.538895,49.7419066 Z M113.544201,81.5267117 C115.295197,81.5267117 116.7013,81.8682014 118.107403,82.9084314 L118.107403,82.9084314 L147.640873,99.4890669 C150.424164,101.199268 152.142119,104.189866 152.204075,107.432641 L152.204075,107.432641 L152.204075,140.940656 C152.204075,144.397582 150.447773,147.155767 147.635567,148.889484 L147.635567,148.889484 L118.107403,165.470119 C116.7013,166.505096 115.295197,166.851839 113.538895,166.851839 C112.132792,166.851839 110.37649,166.158352 108.970387,165.470119 L108.970387,165.470119 L79.4422235,148.889484 C76.6300175,147.161021 74.8737152,144.050838 74.8737152,140.940656 L74.8737152,140.940656 L74.8737152,107.432641 C74.8737152,103.980969 76.6300175,101.21753 79.4422235,99.4890669 L79.4422235,99.4890669 L108.970387,82.9084314 C110.37649,81.8682014 111.782593,81.5267117 113.538895,81.5267117 L113.538895,81.5267117 Z M113.889094,89.8170295 L113.188696,89.8170295 L83.6605325,106.392411 L83.3103333,140.593912 L113.188696,157.868035 L143.417258,141.287399 L143.767457,107.085898 L113.889094,89.8170295 Z" id="Combined-Shape"></path>
            <g id="AKROPOLIS" fill-rule="nonzero">
                <use xlink:href="#path-1"></use>
                <use xlink:href="#path-1"></use>
            </g>
        </g>
    </g>
</svg>