<?xml version="1.0" encoding="UTF-8"?>
<svg width="183px" height="197px" viewBox="0 0 183 197" version="1.1" xmlns="http://www.w3.org/2000/svg" xmlns:xlink="http://www.w3.org/1999/xlink">
    <title>adel on white</title>
    <defs>
        <linearGradient x1="50%" y1="0%" x2="50%" y2="100%" id="linearGradient-1">
            <stop stop-color="#594CF2" offset="0%"></stop>
            <stop stop-color="#281BC1" offset="100%"></stop>
        </linearGradient>
    </defs>
    <g id="Page-1" stroke="none" stroke-width="1" fill="none" fill-rule="evenodd">
        <g id="adel-logo-copy" transform="translate(-779.000000, -991.000000)">
            <g id="adel-on-white" transform="translate(779.000000, 991.000000)">
                <path d="M91.0534384,0 C94.4730436,0 98.2022427,0.899723563 101.307563,2.70373781 L171.852752,42.0449498 C178.068084,45.6484112 182.106877,51.9556104 182.106877,59.1625332 L182.106877,138.14182 C182.106877,145.047313 178.068084,151.655942 171.852752,155.259404 L101.307563,194.299185 C98.2084665,196.097528 94.661047,197.031308 91.0534384,196.999199 C87.4511551,196.991696 83.9143108,196.0607 80.7993136,194.299185 L10.2588156,154.957973 C4.04348379,151.349945 0,145.047313 0,137.84039 L0,59.1625332 C0,52.2524735 4.04348379,45.6438441 10.2588156,42.0449498 L81.1089075,2.70373781 C84.1117903,0.943846043 87.5485182,0.00946199312 91.0534384,0 Z" id="bg" fill="url(#linearGradient-1)"></path>
                <path d="M89.0552053,38.0000004 L89.0544272,48.3638992 L94.2396124,48.3638992 L94.2398129,38.0023554 C95.5537645,38.0080838 96.8526468,38.0165864 97.2440338,38.0278226 C100.170645,38.1118414 102.868186,38.4327628 105.350714,38.9580648 L105.350723,48.3638992 L110.535909,48.3638992 L110.536179,40.454945 C122.426047,44.8982724 128.178129,54.7485011 130.102572,64.6606423 L104.386667,64.6601955 L104.386667,69.8453807 L130.773908,69.8458319 C130.805497,70.3173516 130.829112,70.7868349 130.845014,71.2536811 L130.845916,71.3012114 C130.850833,71.6761002 130.855213,73.9114155 130.859073,77.2520162 L104.386667,77.2527881 L104.386667,82.4379733 L130.86403,82.4372404 C130.864032,82.4405874 130.864035,82.4439349 130.864038,82.4472829 C138.381757,82.7069921 144.386667,88.2413351 144.386667,95.0305659 C144.386667,98.2797544 143.011311,101.241525 140.753079,103.475238 L140.752488,123.662914 C140.752488,135.812727 134.789517,145.162744 129.686496,150.544622 C125.941585,154.494175 118.562987,159.839254 110.241033,162.404571 C109.85744,170.220454 106.627508,174.191549 100.551207,174.318271 L100.248449,174.321404 L94.261,174.320973 L94.2614267,196.761314 C93.3892722,196.919953 92.4687967,196.999272 91.5,196.999272 C90.5312033,196.999272 89.7232838,196.962397 89.0762415,196.888647 L89.076,174.320973 L83.7289472,174.321404 C77.1568931,174.321404 73.6742727,170.329438 73.281086,162.345505 C65.8664865,160.515786 58.6420437,157.111231 53.5396048,152.202305 C46.0455912,144.992506 41.8637467,135.101322 41.7193219,125.353253 L41.7154513,124.831188 L41.7150051,103.819603 C39.2429499,101.550478 37.72,98.4496529 37.72,95.0305659 C37.72,88.2288087 43.7470884,82.6865742 51.283463,82.4461067 L51.283,82.4370004 L77.72,82.4379733 L77.72,77.2527881 L51.3066424,77.2518186 C51.3262339,74.4344481 51.3565953,72.3080123 51.4017754,71.2536811 C51.4218426,70.7853913 51.448067,70.315703 51.4807828,69.8451089 L77.72,69.8453807 L77.72,64.6601955 L52.1181261,64.6608447 C53.9966005,54.2309115 59.6643807,44.242826 72.7571216,40.0608166 L72.7581309,48.3638992 L77.9433161,48.3638992 L77.9420735,38.7893796 C80.2395556,38.3798687 82.722283,38.1225234 85.4033775,38.0367046 C85.9525902,38.0191249 87.6274153,38.0068532 89.0552053,38.0000004 Z M78.2048051,163.327779 C78.6985532,167.797083 80.6690167,169.631472 85.410672,169.631472 L98.5525773,169.631472 C101.703333,169.631472 103.799081,169.032103 105.006227,166.738826 C105.477978,165.842618 105.433186,164.772901 105.449346,163.530932 C103.956045,163.769549 102.449109,163.899631 100.943152,163.899631 L100.444871,163.899014 C97.8143759,163.892434 96.8873586,163.836659 92.106047,163.899631 C91.4776084,163.907907 88.6115616,164.058004 84.1958369,163.899631 C82.3259743,163.832566 80.4034197,163.654876 78.4630249,163.367813 L78.2048051,163.327779 Z M135.757134,106.646286 C134.246547,107.213791 132.601955,107.55228 130.877629,107.613195 L130.877,107.623 L104.386667,107.623158 L104.386667,112.808344 L130.879158,112.817831 C130.879954,115.57552 130.880598,117.897644 130.881016,119.525748 L130.881,120.215 L104.386667,120.215751 L104.386667,125.400936 L130.67663,125.400447 C129.40226,135.792604 122.234162,145.690581 110.536643,150.446884 L110.535909,143.919455 L105.350723,143.919455 L105.351172,152.131922 C102.547408,152.830105 99.5400203,153.256349 96.3428833,153.363389 C96.0268968,153.373969 95.1745288,153.382334 94.2395847,153.388457 L94.2396124,143.919455 L89.0544272,143.919455 L89.0551438,153.395115 C87.8254542,153.389921 86.4573337,153.381263 86.0646052,153.369194 C83.1816109,153.280596 80.4737161,152.960275 77.9425923,152.43736 L77.9433161,143.919455 L72.7581309,143.919455 L72.757615,151.00602 C59.930576,146.502061 52.7560359,136.22885 51.5331929,125.400351 L77.72,125.400936 L77.72,120.215751 L51.343108,120.215485 C51.3397414,118.32151 51.3324093,115.766377 51.3237952,112.809335 L77.72,112.808344 L77.72,107.623158 L51.3089052,107.623037 C51.3088996,107.621027 51.308894,107.619016 51.3088884,107.617006 C49.7376684,107.568163 48.2320278,107.290163 46.8325544,106.818369 L46.832205,123.662914 C46.832205,130.919024 49.70751,140.245637 56.4354424,146.965211 C63.1633749,153.684785 74.1290713,158.646671 83.1285013,158.602177 C92.1279313,158.557683 91.5360117,158.609917 92.106047,158.602177 C96.7058586,158.539725 99.1614888,158.551463 101.899231,158.396452 C110.535909,157.907443 120.150344,152.684334 125.404847,146.965211 C130.659349,141.246088 135.756452,133.770169 135.756452,123.662914 L135.757134,106.646286 Z M91.3311281,86.6987863 C90.8994918,86.6987863 90.4931557,86.7986087 90.1121198,87.0233041 L90.1121198,87.0233041 L84.3475137,90.3174449 L84.2005674,90.4066924 C83.5332512,90.8453472 83.1274568,91.5884516 83.1285033,92.3890454 L83.1285033,92.3890454 L83.1285033,98.952656 L83.1344789,99.1232143 C83.190921,99.9142041 83.6436903,100.630037 84.3475137,101.023877 L84.3475137,101.023877 L90.1121198,104.293347 L90.2769699,104.382073 C90.6097681,104.544526 90.9611542,104.617865 91.3311281,104.617865 C91.7627644,104.617865 92.1691005,104.518042 92.5501365,104.293347 L92.5501365,104.293347 L98.3147426,101.023877 L98.4616663,100.934644 C99.1288836,100.496065 99.5346702,99.7531231 99.533753,98.952656 L99.533753,98.952656 L99.533753,92.3890454 L99.527803,92.2184595 C99.4714708,91.4273385 99.0186776,90.7113469 98.3147426,90.3174449 L98.3147426,90.3174449 L92.5501365,87.0229246 L92.3575101,86.929725 C92.0329524,86.7855036 91.690825,86.6987863 91.3311281,86.6987863 Z M130.867475,87.6395329 L130.867874,87.8162057 C130.868906,89.435691 130.869877,91.1099018 130.870788,92.8075763 L114.757037,92.8083437 L114.757037,97.9935288 L130.87337,97.9942592 C130.874023,99.4074715 130.874636,100.815152 130.87521,102.199751 L132.415444,102.196911 C135.969351,101.364345 138.59146,98.4714354 138.59146,95.0305659 C138.59146,91.1064046 135.181039,87.8949427 130.867475,87.6395329 Z M51.0121811,87.6231585 C46.2620777,87.6231585 42.411358,90.9395677 42.411358,95.0305659 C42.411358,98.4716854 45.1358332,101.364765 48.8283567,102.197093 L51.012,102.195973 L51.012,97.9930004 L68.12237,97.9935288 L68.12237,92.8083437 L51.012,92.8080004 L51.0121811,87.6231585 Z" id="Combined-Shape" fill="#FFFFFF"></path>
            </g>
        </g>
    </g>
</svg>